<svg aria-hidden="true" style="position: absolute; width: 0; height: 0; overflow: hidden;" version="1.1" xmlns="http://www.w3.org/2000/svg" xmlns:xlink="http://www.w3.org/1999/xlink">
<defs>
<symbol id="icon-check" viewBox="0 0 32 32">
<path fill="#fff" style="fill: var(--color1, #fff); stroke: var(--color1, #fff)" stroke="#fff" stroke-linejoin="miter" stroke-linecap="butt" stroke-miterlimit="4" stroke-width="0.4923" d="M4.817 15.389l-0.169-0.162-2.544 2.41 8.962 8.55 18.829-17.962-2.527-2.411-16.302 15.536-6.249-5.962z"></path>
</symbol>
<symbol id="icon-envelope-2" viewBox="0 0 32 32">
<path d="M28 4h-24c-1.65 0-2.985 1.35-2.985 3l-0.015 18c0 1.65 1.35 3 3 3h24c1.65 0 3-1.35 3-3v-18c0-1.65-1.35-3-3-3zM27.4 10.375l-10.605 6.63c-0.48 0.3-1.11 0.3-1.59 0l-10.605-6.63c-0.375-0.24-0.6-0.645-0.6-1.080 0-1.005 1.095-1.605 1.95-1.080l10.050 6.285 10.050-6.285c0.855-0.525 1.95 0.075 1.95 1.080 0 0.435-0.225 0.84-0.6 1.080z"></path>
</symbol>
<symbol id="icon-phone-2" viewBox="0 0 32 32">
<path d="M27.419 20.852l-4.202-0.48c-1.009-0.116-2.001 0.232-2.713 0.943l-3.044 3.044c-4.681-2.382-8.519-6.203-10.901-10.901l3.060-3.060c0.711-0.711 1.059-1.704 0.943-2.713l-0.48-4.168c-0.198-1.671-1.604-2.928-3.292-2.928h-2.862c-1.869 0-3.424 1.555-3.308 3.424 0.877 14.126 12.174 25.407 26.284 26.284 1.869 0.116 3.424-1.439 3.424-3.308v-2.861c0.016-1.671-1.241-3.077-2.911-3.275z"></path>
</symbol>
<symbol id="icon-person" viewBox="0 0 32 32">
<path d="M16 16c4.42 0 8-3.58 8-8s-3.58-8-8-8c-4.42 0-8 3.58-8 8s3.58 8 8 8zM16 20c-5.34 0-16 2.68-16 8v2c0 1.1 0.9 2 2 2h28c1.1 0 2-0.9 2-2v-2c0-5.32-10.66-8-16-8z"></path>
</symbol>
<symbol id="icon-close" viewBox="0 0 32 32">
<path d="M26.667 7.303l-1.97-1.97-7.808 7.808-7.808-7.808-1.97 1.97 7.808 7.808-7.808 7.808 1.97 1.97 7.808-7.808 7.808 7.808 1.97-1.97-7.808-7.808 7.808-7.808z"></path>
</symbol>
<symbol id="icon-send" viewBox="0 0 32 32">
<path fill="#fff" style="fill: var(--color1, #fff)" d="M32.021 0l-32.021 18.012 10.233 3.789 15.784-14.796-12.005 16.197 0.009 0.003-0.012-0.003v8.819l5.738-6.695 7.271 2.692 5.002-28.018z"></path>
</symbol>
<symbol id="icon-finger" viewBox="0 0 32 32">
<path fill="#fff" style="fill: var(--color1, #fff)" d="M26.674 12.003c-0.494 0-0.954 0.134-1.352 0.368-0.157-1.338-1.282-2.366-2.648-2.369h-0c-0.652 0-1.25 0.236-1.716 0.628-0.475-0.781-1.32-1.294-2.286-1.294-0.491 0-0.952 0.133-1.347 0.365l0.013-0.007v-7.028c0.002-1.47-1.192-2.667-2.665-2.667s-2.669 1.196-2.669 2.667v17.848c0 0.334-0.22 0.508-0.316 0.566-0.099 0.063-0.221 0.101-0.351 0.101-0.108 0-0.211-0.026-0.301-0.073l0.004 0.002-4.281-2.141c-0.367-0.187-0.801-0.296-1.26-0.296-1.56 0-2.825 1.263-2.829 2.823v0.508c0 0.184 0.076 0.36 0.21 0.488l7.698 7.182c1.541 1.445 3.62 2.333 5.906 2.333 0.003 0 0.006 0 0.008 0h4.181c4.786-0.005 8.664-3.882 8.67-8.668v-8.671c0-1.47-1.196-2.667-2.667-2.667zM28.007 23.34c-0.005 4.049-3.285 7.329-7.333 7.334h-4.181c-1.864 0-3.643-0.7-5.005-1.972l-7.486-6.986v-0.22c0.002-0.823 0.669-1.489 1.492-1.489 0.243 0 0.472 0.058 0.675 0.161l-0.008-0.004 4.281 2.141c0.626 0.314 1.354 0.28 1.948-0.086 0.573-0.356 0.948-0.981 0.948-1.695 0-0.003 0-0.005-0-0.008v0-17.848c0.048-0.699 0.627-1.247 1.333-1.247s1.285 0.548 1.333 1.243l0 0.004v10.002c0 0.368 0.299 0.667 0.667 0.667s0.667-0.299 0.667-0.667v0-0.666c0.048-0.698 0.627-1.247 1.333-1.247s1.285 0.548 1.333 1.243l0 0.004v0.67c0.021 0.352 0.312 0.63 0.667 0.63 0.357 0 0.648-0.28 0.667-0.632l0-0.002v-0.010c0.051-0.696 0.628-1.242 1.333-1.242 0.708 0 1.288 0.551 1.333 1.248l0 0.004v2.001c0 0.368 0.299 0.667 0.667 0.667s0.667-0.299 0.667-0.667v0c0.048-0.698 0.627-1.247 1.333-1.247s1.285 0.548 1.333 1.243l0 0.004v8.67z"></path>
</symbol>
</defs>
</svg>
